<svg width="898" height="387" viewBox="0 0 898 387" fill="none" xmlns="http://www.w3.org/2000/svg">
<g clip-path="url(#clip0_355_102)">
<path d="M138.208 286.662C138.208 295.934 143.224 300.38 154.928 300.38C165.606 300.38 171.116 296.618 171.534 288.182H161.426C161.046 290.728 159.108 292.02 154.928 292.02C149.114 292.02 148.088 289.512 148.088 286.662C148.088 283.85 149.076 281.38 154.928 281.38C159.108 281.38 161.046 282.634 161.426 285.142H171.534C171.116 276.744 165.568 273.02 154.928 273.02C143.224 273.02 138.208 277.428 138.208 286.662ZM189.791 300.38C201.457 300.38 206.511 295.896 206.511 286.662C206.511 277.466 201.457 273.02 189.791 273.02C178.087 273.02 173.071 277.428 173.071 286.662C173.071 295.934 178.087 300.38 189.791 300.38ZM189.791 292.02C183.977 292.02 182.951 289.512 182.951 286.662C182.951 283.85 183.939 281.38 189.791 281.38C195.643 281.38 196.631 283.888 196.631 286.662C196.631 289.474 195.605 292.02 189.791 292.02ZM218.306 291.64V273.4H208.426V300H235.786V291.64H218.306ZM247.566 291.64V273.4H237.686V300H265.046V291.64H247.566ZM295.066 281V273.4H266.946V300H295.066V292.4H276.826V289.93H295.066V283.47H276.826V281H295.066ZM296.569 286.662C296.569 295.934 301.585 300.38 313.289 300.38C323.967 300.38 329.477 296.618 329.895 288.182H319.787C319.407 290.728 317.469 292.02 313.289 292.02C307.475 292.02 306.449 289.512 306.449 286.662C306.449 283.85 307.437 281.38 313.289 281.38C317.469 281.38 319.407 282.634 319.787 285.142H329.895C329.477 276.744 323.929 273.02 313.289 273.02C301.585 273.02 296.569 277.428 296.569 286.662ZM363.741 273.4H331.061V281.76H342.461V300H352.341V281.76H363.741V273.4ZM413.911 273.4H381.231V281.76H392.631V300H402.511V281.76H413.911V273.4ZM431.776 300.38C443.442 300.38 448.496 295.896 448.496 286.662C448.496 277.466 443.442 273.02 431.776 273.02C420.072 273.02 415.056 277.428 415.056 286.662C415.056 295.934 420.072 300.38 431.776 300.38ZM431.776 292.02C425.962 292.02 424.936 289.512 424.936 286.662C424.936 283.85 425.924 281.38 431.776 281.38C437.628 281.38 438.616 283.888 438.616 286.662C438.616 289.474 437.59 292.02 431.776 292.02ZM486.145 273.4H466.385V300H486.145C492.567 300 498.609 295.744 498.609 286.7C498.609 277.656 492.567 273.4 486.145 273.4ZM483.105 291.64H476.265V281.76H483.105C485.233 281.76 488.729 281.76 488.729 286.7C488.729 291.64 485.233 291.64 483.105 291.64ZM516.847 300.38C528.513 300.38 533.567 295.896 533.567 286.662C533.567 277.466 528.513 273.02 516.847 273.02C505.143 273.02 500.127 277.428 500.127 286.662C500.127 295.934 505.143 300.38 516.847 300.38ZM516.847 292.02C511.033 292.02 510.007 289.512 510.007 286.662C510.007 283.85 510.995 281.38 516.847 281.38C522.699 281.38 523.687 283.888 523.687 286.662C523.687 289.474 522.661 292.02 516.847 292.02ZM577.792 273.4L572.282 292.172L566.506 273.4H554.726L548.95 292.172L543.44 273.4H532.838L541.578 300H556.246L560.616 284.686L564.986 300H579.654L588.394 273.4H577.792ZM614.706 273.4V289.094L603.23 273.4H590.31V300H600.19V284.306L611.666 300H624.586V273.4H614.706ZM636.761 291.64V273.4H626.881V300H654.241V291.64H636.761ZM672.48 300.38C684.146 300.38 689.2 295.896 689.2 286.662C689.2 277.466 684.146 273.02 672.48 273.02C660.776 273.02 655.76 277.428 655.76 286.662C655.76 295.934 660.776 300.38 672.48 300.38ZM672.48 292.02C666.666 292.02 665.64 289.512 665.64 286.662C665.64 283.85 666.628 281.38 672.48 281.38C678.332 281.38 679.32 283.888 679.32 286.662C679.32 289.474 678.294 292.02 672.48 292.02ZM713.161 300H724.029L713.009 273.4H698.341L687.321 300H698.189L700.013 295.212H711.337L713.161 300ZM702.597 288.372L705.675 280.24L708.753 288.372H702.597ZM745.331 273.4H725.571V300H745.331C751.753 300 757.795 295.744 757.795 286.7C757.795 277.656 751.753 273.4 745.331 273.4ZM742.291 291.64H735.451V281.76H742.291C744.419 281.76 747.915 281.76 747.915 286.7C747.915 291.64 744.419 291.64 742.291 291.64Z" fill="url(#paint0_linear_355_102)"/>
<g opacity="0.8">
<path opacity="0.4" d="M89.5459 236H116.664V239.161H93.4199V363.268H116.664V366.429H89.5459V236Z" fill="white"/>
<path opacity="0.4" d="M806.089 236H778.971V239.161H802.215V361.268H778.971V364.429H806.089V236Z" fill="white"/>
</g>
<g filter="url(#filter0_b_355_102)">
<path d="M898 192V21.4176C898 20.835 897.746 20.2815 897.305 19.9015L877.062 2.48398C876.7 2.17173 876.237 2 875.758 2H4C2.89543 2 2 2.89543 2 4V172L23.5 194H896C897.105 194 898 193.105 898 192Z" fill="black"/>
<path d="M876.084 3.62095L876.084 3.621L896.326 21.0385C896.437 21.1335 896.5 21.2719 896.5 21.4176V192C896.5 192.276 896.276 192.5 896 192.5H24.1314L3.5 171.389V4C3.5 3.72386 3.72386 3.5 4 3.5H875.758C875.878 3.5 875.993 3.54293 876.084 3.62095Z" stroke="white" stroke-width="3"/>
</g>
<path d="M35.7841 123.1C38.8541 123.1 40.1841 121.92 40.1841 119.49C40.1841 117.07 38.8541 115.9 35.7841 115.9C32.7041 115.9 31.3841 117.06 31.3841 119.49C31.3841 121.93 32.7041 123.1 35.7841 123.1ZM35.7841 120.9C34.2541 120.9 33.9841 120.24 33.9841 119.49C33.9841 118.75 34.2441 118.1 35.7841 118.1C37.3241 118.1 37.5841 118.76 37.5841 119.49C37.5841 120.23 37.3141 120.9 35.7841 120.9ZM47.188 116H41.688V123H44.288V121.36H47.188C48.778 121.36 49.868 120.24 49.868 118.68C49.868 117.12 48.778 116 47.188 116ZM46.688 119.16H44.288V118.2H46.688C46.948 118.2 47.268 118.2 47.268 118.68C47.268 119.16 46.948 119.16 46.688 119.16ZM58.7646 118V116H51.3646V123H58.7646V121H53.9646V120.35H58.7646V118.65H53.9646V118H58.7646ZM66.6799 116V120.13L63.6599 116H60.2599V123H62.8599V118.87L65.8799 123H69.2799V116H66.6799ZM75.9876 120.53C75.9876 122.61 77.5876 123.1 80.4576 123.1C83.3276 123.1 84.9276 122.61 84.9276 120.68C84.9276 118.85 83.2176 118.66 80.4576 118.55C78.9376 118.49 78.6876 118.5 78.6876 118.23C78.6876 117.96 78.9376 117.9 80.1576 117.9C81.4276 117.9 82.0276 117.98 82.0276 118.35H84.6276C84.6276 116.56 83.0876 115.9 80.3576 115.9C77.5976 115.9 76.0876 116.56 76.0876 118.1C76.0876 119.73 77.2976 120.25 80.4576 120.35C82.0977 120.4 82.3277 120.44 82.3277 120.74C82.3277 121 82.0977 121.1 80.5576 121.1C78.9076 121.1 78.5876 120.87 78.5876 120.53H75.9876ZM90.6306 123.1C93.7006 123.1 95.0306 121.92 95.0306 119.49C95.0306 117.07 93.7006 115.9 90.6306 115.9C87.5506 115.9 86.2306 117.06 86.2306 119.49C86.2306 121.93 87.5506 123.1 90.6306 123.1ZM90.6306 120.9C89.1006 120.9 88.8306 120.24 88.8306 119.49C88.8306 118.75 89.0906 118.1 90.6306 118.1C92.1706 118.1 92.4306 118.76 92.4306 119.49C92.4306 120.23 92.1606 120.9 90.6306 120.9ZM105.335 119.49V116H102.735V119.49C102.735 120.23 102.465 120.9 100.935 120.9C99.4045 120.9 99.1345 120.24 99.1345 119.49V116H96.5345V119.49C96.5345 121.93 97.8545 123.1 100.935 123.1C104.005 123.1 105.335 121.92 105.335 119.49ZM115.114 118.68C115.114 117.12 114.024 116 112.434 116H106.934V123H109.534V121.36H111.064L112.034 123H115.114L113.874 120.99C114.644 120.54 115.114 119.7 115.114 118.68ZM109.534 118.2H111.934C112.194 118.2 112.514 118.2 112.514 118.68C112.514 119.16 112.194 119.16 111.934 119.16H109.534V118.2ZM116.51 119.49C116.51 121.93 117.83 123.1 120.91 123.1C123.72 123.1 125.17 122.11 125.28 119.89H122.62C122.52 120.56 122.01 120.9 120.91 120.9C119.38 120.9 119.11 120.24 119.11 119.49C119.11 118.75 119.37 118.1 120.91 118.1C122.01 118.1 122.52 118.43 122.62 119.09H125.28C125.17 116.88 123.71 115.9 120.91 115.9C117.83 115.9 116.51 117.06 116.51 119.49ZM134.185 118V116H126.785V123H134.185V121H129.385V120.35H134.185V118.65H129.385V118H134.185Z" fill="white"/>
<g clip-path="url(#clip1_355_102)">
<path d="M47.1144 132.311L44.8966 134.816V129.806L47.1144 132.311Z" fill="white" fill-opacity="0.6"/>
</g>
<g clip-path="url(#clip2_355_102)">
<path d="M47.1144 144.837L44.8966 147.342V142.332L47.1144 144.837Z" fill="white" fill-opacity="0.6"/>
</g>
<g clip-path="url(#clip3_355_102)">
<path d="M47.1144 157.359L44.8966 159.864V154.854L47.1144 157.359Z" fill="white" fill-opacity="0.6"/>
</g>
<path d="M54.87 128.91V136H52.5V128.91H54.87ZM57.0691 136V128.91H57.8591L59.8291 131.48V128.91H62.1891V136H61.3991L59.4391 133.45V136H57.0691ZM65.9622 129.9H63.9922V128.91H70.2922V129.9H68.3222V136H65.9622V129.9ZM76.4261 128.91V129.9H74.4661V132.06H75.2461V132.85H74.4661V135.01H76.4261V136H72.0961V128.91H76.4261ZM83.4842 134.03C83.4909 134.177 83.5242 134.31 83.5842 134.43C83.6376 134.53 83.7142 134.62 83.8142 134.7C83.9209 134.78 84.0742 134.82 84.2742 134.82V136H83.0942C82.8942 136 82.7176 135.98 82.5642 135.94C82.4176 135.893 82.2876 135.833 82.1742 135.76C82.0676 135.687 81.9742 135.603 81.8942 135.51C81.8209 135.417 81.7609 135.32 81.7142 135.22C81.5942 134.993 81.5276 134.73 81.5142 134.43V133.25C81.5076 133.177 81.4909 133.11 81.4642 133.05C81.4376 132.997 81.3976 132.95 81.3442 132.91C81.2909 132.87 81.2176 132.85 81.1242 132.85H80.7342V136H78.3742V128.92H82.3042C82.5042 128.92 82.6776 128.943 82.8242 128.99C82.9776 129.037 83.1076 129.097 83.2142 129.17C83.3276 129.243 83.4209 129.327 83.4942 129.42C83.5676 129.513 83.6309 129.61 83.6842 129.71C83.8042 129.937 83.8709 130.197 83.8842 130.49V130.88C83.8709 131.18 83.8209 131.443 83.7342 131.67C83.6609 131.87 83.5442 132.053 83.3842 132.22C83.2242 132.38 82.9976 132.46 82.7042 132.46C82.8442 132.467 82.9742 132.5 83.0942 132.56C83.1876 132.613 83.2742 132.693 83.3542 132.8C83.4409 132.907 83.4842 133.057 83.4842 133.25V134.03ZM81.5142 130.1C81.5076 129.96 81.4742 129.83 81.4142 129.71C81.3609 129.61 81.2809 129.52 81.1742 129.44C81.0742 129.353 80.9276 129.31 80.7342 129.31V132.07C80.9276 132.07 81.0742 132.03 81.1742 131.95C81.2809 131.87 81.3609 131.78 81.4142 131.68C81.4742 131.56 81.5076 131.427 81.5142 131.28V130.1ZM90.4185 128.91C90.6118 128.91 90.7818 128.933 90.9285 128.98C91.0818 129.027 91.2118 129.087 91.3185 129.16C91.4318 129.233 91.5252 129.317 91.5985 129.41C91.6718 129.503 91.7352 129.6 91.7885 129.7C91.9085 129.933 91.9752 130.197 91.9885 130.49V136H89.6285V132.85H88.8385V136H86.4785V130.49C86.4785 130.097 86.5585 129.793 86.7185 129.58C86.8852 129.367 87.0685 129.21 87.2685 129.11C87.4952 128.99 87.7585 128.923 88.0585 128.91H90.4185ZM89.6285 129.7C89.6218 129.633 89.6052 129.57 89.5785 129.51C89.5518 129.457 89.5118 129.41 89.4585 129.37C89.4052 129.33 89.3318 129.31 89.2385 129.31C89.1385 129.31 89.0618 129.33 89.0085 129.37C88.9552 129.41 88.9152 129.457 88.8885 129.51C88.8618 129.57 88.8452 129.633 88.8385 129.7V132.06H89.6285V129.7ZM94.1922 130.49C94.1922 130.29 94.2122 130.117 94.2522 129.97C94.2989 129.817 94.3589 129.687 94.4322 129.58C94.5055 129.467 94.5889 129.373 94.6822 129.3C94.7755 129.227 94.8722 129.163 94.9722 129.11C95.1989 128.99 95.4622 128.923 95.7622 128.91H97.9322C98.1522 128.91 98.3455 128.937 98.5122 128.99C98.6789 129.037 98.8255 129.103 98.9522 129.19C99.0789 129.277 99.1855 129.373 99.2722 129.48C99.3589 129.587 99.4289 129.693 99.4822 129.8C99.6089 130.06 99.6822 130.353 99.7022 130.68H97.3422V129.7C97.3355 129.633 97.3189 129.57 97.2922 129.51C97.2655 129.457 97.2255 129.41 97.1722 129.37C97.1189 129.33 97.0422 129.31 96.9422 129.31C96.8422 129.31 96.7655 129.33 96.7122 129.37C96.6655 129.41 96.6289 129.457 96.6022 129.51C96.5755 129.57 96.5589 129.633 96.5522 129.7V135.21C96.5589 135.283 96.5755 135.35 96.6022 135.41C96.6289 135.463 96.6655 135.51 96.7122 135.55C96.7655 135.583 96.8422 135.6 96.9422 135.6C97.0422 135.6 97.1189 135.583 97.1722 135.55C97.2255 135.51 97.2655 135.463 97.2922 135.41C97.3189 135.35 97.3355 135.283 97.3422 135.21V134.23H99.7022C99.6822 134.563 99.6089 134.86 99.4822 135.12C99.4289 135.233 99.3589 135.343 99.2722 135.45C99.1855 135.55 99.0789 135.643 98.9522 135.73C98.8255 135.81 98.6789 135.877 98.5122 135.93C98.3455 135.977 98.1522 136 97.9322 136H95.7622C95.4622 135.987 95.1989 135.92 94.9722 135.8C94.8722 135.753 94.7755 135.693 94.6822 135.62C94.5889 135.54 94.5055 135.447 94.4322 135.34C94.3589 135.227 94.2989 135.097 94.2522 134.95C94.2122 134.797 94.1922 134.62 94.1922 134.42V130.49ZM103.222 129.9H101.252V128.91H107.552V129.9H105.582V136H103.222V129.9ZM111.726 128.91V136H109.356V128.91H111.726ZM113.675 128.91H116.435V134.42C116.442 134.493 116.458 134.56 116.485 134.62C116.512 134.673 116.548 134.72 116.595 134.76C116.648 134.793 116.725 134.81 116.825 134.81C116.925 134.81 117.002 134.793 117.055 134.76C117.108 134.72 117.148 134.673 117.175 134.62C117.202 134.56 117.218 134.493 117.225 134.42V128.91H119.975L118.405 136H115.255L113.675 128.91ZM126.252 128.91V129.9H124.292V132.06H125.072V132.85H124.292V135.01H126.252V136H121.922V128.91H126.252Z" fill="white"/>
<path d="M52.7871 148.827V141.747H53.5771L55.7371 144.107L57.9071 141.747H58.6971V148.827H56.3271V146.277L55.7371 146.867L55.1471 146.277V148.827H52.7871ZM63.2612 141.737V148.037C63.2678 148.11 63.2845 148.177 63.3112 148.237C63.3378 148.29 63.3745 148.337 63.4212 148.377C63.4745 148.41 63.5512 148.427 63.6512 148.427C63.7512 148.427 63.8278 148.41 63.8812 148.377C63.9345 148.337 63.9745 148.29 64.0012 148.237C64.0278 148.177 64.0445 148.11 64.0512 148.037V141.737H66.4112V147.247C66.3978 147.547 66.3312 147.81 66.2112 148.037C66.1112 148.237 65.9545 148.42 65.7412 148.587C65.5278 148.747 65.2245 148.827 64.8312 148.827H62.4712C62.1712 148.814 61.9078 148.747 61.6812 148.627C61.5812 148.58 61.4845 148.52 61.3912 148.447C61.2978 148.367 61.2145 148.274 61.1412 148.167C61.0678 148.054 61.0078 147.924 60.9612 147.777C60.9212 147.624 60.9012 147.447 60.9012 147.247V141.737H63.2612ZM68.5148 143.317C68.5148 142.93 68.5948 142.63 68.7548 142.417C68.9215 142.204 69.1048 142.047 69.3048 141.947C69.5315 141.827 69.7948 141.76 70.0948 141.747H72.4548C72.6482 141.747 72.8182 141.77 72.9648 141.817C73.1182 141.864 73.2482 141.924 73.3548 141.997C73.4682 142.07 73.5615 142.154 73.6348 142.247C73.7082 142.34 73.7715 142.437 73.8248 142.537C73.9448 142.764 74.0115 143.024 74.0248 143.317H71.6648V142.527C71.6582 142.46 71.6415 142.397 71.6148 142.337C71.5882 142.284 71.5482 142.237 71.4948 142.197C71.4415 142.157 71.3682 142.137 71.2748 142.137C71.1748 142.137 71.0982 142.157 71.0448 142.197C70.9915 142.237 70.9515 142.284 70.9248 142.337C70.8982 142.397 70.8815 142.46 70.8748 142.527V144.107C70.8748 144.207 70.8948 144.284 70.9348 144.337C70.9748 144.384 71.0215 144.42 71.0748 144.447C71.1348 144.474 71.2015 144.49 71.2748 144.497H72.4548C72.6482 144.497 72.8182 144.52 72.9648 144.567C73.1182 144.614 73.2482 144.674 73.3548 144.747C73.4682 144.82 73.5615 144.904 73.6348 144.997C73.7082 145.09 73.7715 145.187 73.8248 145.287C73.9448 145.52 74.0115 145.784 74.0248 146.077V147.257C74.0248 147.457 74.0015 147.63 73.9548 147.777C73.9082 147.924 73.8482 148.054 73.7748 148.167C73.7015 148.274 73.6182 148.367 73.5248 148.447C73.4315 148.52 73.3348 148.58 73.2348 148.627C73.0082 148.747 72.7482 148.814 72.4548 148.827H70.0948C69.8948 148.827 69.7182 148.807 69.5648 148.767C69.4182 148.72 69.2882 148.66 69.1748 148.587C69.0682 148.514 68.9748 148.43 68.8948 148.337C68.8215 148.244 68.7615 148.147 68.7148 148.047C68.5948 147.82 68.5282 147.557 68.5148 147.257H70.8748V148.037C70.8815 148.11 70.8982 148.177 70.9248 148.237C70.9515 148.29 70.9915 148.337 71.0448 148.377C71.0982 148.417 71.1748 148.437 71.2748 148.437C71.3682 148.437 71.4415 148.417 71.4948 148.377C71.5482 148.337 71.5882 148.29 71.6148 148.237C71.6415 148.177 71.6582 148.11 71.6648 148.037V146.467C71.6648 146.374 71.6448 146.3 71.6048 146.247C71.5648 146.194 71.5182 146.154 71.4648 146.127C71.4048 146.1 71.3415 146.084 71.2748 146.077H70.0948C69.7015 146.077 69.3982 145.997 69.1848 145.837C68.9715 145.67 68.8148 145.487 68.7148 145.287C68.5948 145.06 68.5282 144.797 68.5148 144.497V143.317ZM78.4934 141.737V148.827H76.1234V141.737H78.4934ZM80.6926 143.317C80.6926 143.117 80.7126 142.944 80.7526 142.797C80.7992 142.644 80.8592 142.514 80.9326 142.407C81.0059 142.294 81.0892 142.2 81.1826 142.127C81.2759 142.054 81.3726 141.99 81.4726 141.937C81.6992 141.817 81.9626 141.75 82.2626 141.737H84.4326C84.6526 141.737 84.8459 141.764 85.0126 141.817C85.1792 141.864 85.3259 141.93 85.4526 142.017C85.5792 142.104 85.6859 142.2 85.7726 142.307C85.8592 142.414 85.9292 142.52 85.9826 142.627C86.1092 142.887 86.1826 143.18 86.2026 143.507H83.8426V142.527C83.8359 142.46 83.8192 142.397 83.7926 142.337C83.7659 142.284 83.7259 142.237 83.6726 142.197C83.6192 142.157 83.5426 142.137 83.4426 142.137C83.3426 142.137 83.2659 142.157 83.2126 142.197C83.1659 142.237 83.1292 142.284 83.1026 142.337C83.0759 142.397 83.0592 142.46 83.0526 142.527V148.037C83.0592 148.11 83.0759 148.177 83.1026 148.237C83.1292 148.29 83.1659 148.337 83.2126 148.377C83.2659 148.41 83.3426 148.427 83.4426 148.427C83.5426 148.427 83.6192 148.41 83.6726 148.377C83.7259 148.337 83.7659 148.29 83.7926 148.237C83.8192 148.177 83.8359 148.11 83.8426 148.037V147.057H86.2026C86.1826 147.39 86.1092 147.687 85.9826 147.947C85.9292 148.06 85.8592 148.17 85.7726 148.277C85.6859 148.377 85.5792 148.47 85.4526 148.557C85.3259 148.637 85.1792 148.704 85.0126 148.757C84.8459 148.804 84.6526 148.827 84.4326 148.827H82.2626C81.9626 148.814 81.6992 148.747 81.4726 148.627C81.3726 148.58 81.2759 148.52 81.1826 148.447C81.0892 148.367 81.0059 148.274 80.9326 148.167C80.8592 148.054 80.7992 147.924 80.7526 147.777C80.7126 147.624 80.6926 147.447 80.6926 147.247V143.317Z" fill="white"/>
<path d="M52.5 155.49C52.5 155.29 52.52 155.117 52.56 154.97C52.6067 154.817 52.6667 154.687 52.74 154.58C52.8133 154.467 52.8967 154.373 52.99 154.3C53.0833 154.227 53.18 154.163 53.28 154.11C53.5067 153.99 53.77 153.923 54.07 153.91H56.24C56.46 153.91 56.6533 153.937 56.82 153.99C56.9867 154.037 57.1333 154.103 57.26 154.19C57.3867 154.277 57.4933 154.373 57.58 154.48C57.6667 154.587 57.7367 154.693 57.79 154.8C57.9167 155.06 57.99 155.353 58.01 155.68H55.65V154.7C55.6433 154.633 55.6267 154.57 55.6 154.51C55.5733 154.457 55.5333 154.41 55.48 154.37C55.4267 154.33 55.35 154.31 55.25 154.31C55.15 154.31 55.0733 154.33 55.02 154.37C54.9733 154.41 54.9367 154.457 54.91 154.51C54.8833 154.57 54.8667 154.633 54.86 154.7V160.21C54.8667 160.283 54.8833 160.35 54.91 160.41C54.9367 160.463 54.9733 160.51 55.02 160.55C55.0733 160.583 55.15 160.6 55.25 160.6C55.35 160.6 55.4267 160.583 55.48 160.55C55.5333 160.51 55.5733 160.463 55.6 160.41C55.6267 160.35 55.6433 160.283 55.65 160.21V159.23H58.01C57.99 159.563 57.9167 159.86 57.79 160.12C57.7367 160.233 57.6667 160.343 57.58 160.45C57.4933 160.55 57.3867 160.643 57.26 160.73C57.1333 160.81 56.9867 160.877 56.82 160.93C56.6533 160.977 56.46 161 56.24 161H54.07C53.77 160.987 53.5067 160.92 53.28 160.8C53.18 160.753 53.0833 160.693 52.99 160.62C52.8967 160.54 52.8133 160.447 52.74 160.34C52.6667 160.227 52.6067 160.097 52.56 159.95C52.52 159.797 52.5 159.62 52.5 159.42V155.49ZM63.7998 153.91C63.9931 153.91 64.1631 153.933 64.3098 153.98C64.4631 154.027 64.5931 154.087 64.6998 154.16C64.8131 154.233 64.9064 154.317 64.9798 154.41C65.0531 154.503 65.1164 154.6 65.1698 154.7C65.2898 154.933 65.3564 155.197 65.3698 155.49V159.43C65.3698 159.63 65.3464 159.803 65.2998 159.95C65.2531 160.097 65.1931 160.227 65.1198 160.34C65.0464 160.447 64.9631 160.54 64.8698 160.62C64.7764 160.693 64.6798 160.753 64.5798 160.8C64.3531 160.92 64.0931 160.987 63.7998 161H61.4398C61.1398 160.987 60.8764 160.92 60.6498 160.8C60.5498 160.753 60.4531 160.693 60.3598 160.62C60.2664 160.54 60.1798 160.447 60.0998 160.34C60.0264 160.227 59.9664 160.097 59.9198 159.95C59.8798 159.803 59.8598 159.63 59.8598 159.43V155.49C59.8598 155.103 59.9398 154.803 60.0998 154.59C60.2664 154.37 60.4498 154.21 60.6498 154.11C60.8764 153.99 61.1398 153.923 61.4398 153.91H63.7998ZM63.0098 154.7C63.0031 154.633 62.9864 154.57 62.9598 154.51C62.9331 154.457 62.8931 154.41 62.8398 154.37C62.7864 154.33 62.7131 154.31 62.6198 154.31C62.5198 154.31 62.4431 154.33 62.3898 154.37C62.3364 154.41 62.2964 154.457 62.2698 154.51C62.2431 154.57 62.2264 154.633 62.2198 154.7V160.21C62.2264 160.283 62.2431 160.35 62.2698 160.41C62.2964 160.463 62.3364 160.51 62.3898 160.55C62.4431 160.59 62.5198 160.61 62.6198 160.61C62.7131 160.61 62.7864 160.59 62.8398 160.55C62.8931 160.51 62.9331 160.463 62.9598 160.41C62.9864 160.35 63.0031 160.283 63.0098 160.21V154.7ZM69.8284 160.02H71.7984V161H67.4684V153.91H69.8284V160.02ZM76.1065 160.02H78.0765V161H73.7465V153.91H76.1065V160.02ZM84.3546 153.91V154.9H82.3946V157.06H83.1746V157.85H82.3946V160.01H84.3546V161H80.0246V153.91H84.3546ZM86.3027 155.49C86.3027 155.29 86.3227 155.117 86.3627 154.97C86.4094 154.817 86.4694 154.687 86.5427 154.58C86.6161 154.467 86.6994 154.373 86.7927 154.3C86.8861 154.227 86.9827 154.163 87.0827 154.11C87.3094 153.99 87.5727 153.923 87.8727 153.91H90.0427C90.2627 153.91 90.4561 153.937 90.6227 153.99C90.7894 154.037 90.9361 154.103 91.0627 154.19C91.1894 154.277 91.2961 154.373 91.3827 154.48C91.4694 154.587 91.5394 154.693 91.5927 154.8C91.7194 155.06 91.7927 155.353 91.8127 155.68H89.4527V154.7C89.4461 154.633 89.4294 154.57 89.4027 154.51C89.3761 154.457 89.3361 154.41 89.2827 154.37C89.2294 154.33 89.1527 154.31 89.0527 154.31C88.9527 154.31 88.8761 154.33 88.8227 154.37C88.7761 154.41 88.7394 154.457 88.7127 154.51C88.6861 154.57 88.6694 154.633 88.6627 154.7V160.21C88.6694 160.283 88.6861 160.35 88.7127 160.41C88.7394 160.463 88.7761 160.51 88.8227 160.55C88.8761 160.583 88.9527 160.6 89.0527 160.6C89.1527 160.6 89.2294 160.583 89.2827 160.55C89.3361 160.51 89.3761 160.463 89.4027 160.41C89.4294 160.35 89.4461 160.283 89.4527 160.21V159.23H91.8127C91.7927 159.563 91.7194 159.86 91.5927 160.12C91.5394 160.233 91.4694 160.343 91.3827 160.45C91.2961 160.55 91.1894 160.643 91.0627 160.73C90.9361 160.81 90.7894 160.877 90.6227 160.93C90.4561 160.977 90.2627 161 90.0427 161H87.8727C87.5727 160.987 87.3094 160.92 87.0827 160.8C86.9827 160.753 86.8861 160.693 86.7927 160.62C86.6994 160.54 86.6161 160.447 86.5427 160.34C86.4694 160.227 86.4094 160.097 86.3627 159.95C86.3227 159.797 86.3027 159.62 86.3027 159.42V155.49ZM95.3325 154.9H93.3625V153.91H99.6625V154.9H97.6925V161H95.3325V154.9ZM103.836 153.91V161H101.466V153.91H103.836ZM111.736 156.27C111.736 156.57 111.692 156.8 111.606 156.96C111.526 157.113 111.439 157.227 111.346 157.3C111.226 157.387 111.096 157.437 110.956 157.45C111.096 157.463 111.226 157.513 111.346 157.6C111.439 157.673 111.526 157.79 111.606 157.95C111.692 158.11 111.736 158.34 111.736 158.64V159.42C111.722 159.72 111.656 159.983 111.536 160.21C111.436 160.41 111.279 160.593 111.066 160.76C110.852 160.92 110.552 161 110.166 161H106.036V153.91H110.166C110.359 153.91 110.529 153.933 110.676 153.98C110.829 154.027 110.959 154.087 111.066 154.16C111.179 154.233 111.272 154.317 111.346 154.41C111.419 154.503 111.482 154.6 111.536 154.7C111.656 154.933 111.722 155.197 111.736 155.49V156.27ZM109.576 158.64C109.569 158.5 109.536 158.37 109.476 158.25C109.422 158.15 109.342 158.06 109.236 157.98C109.129 157.893 108.979 157.85 108.786 157.85V160.6C108.979 160.6 109.129 160.56 109.236 160.48C109.342 160.4 109.422 160.31 109.476 160.21C109.536 160.097 109.569 159.967 109.576 159.82V158.64ZM109.576 155.09C109.569 154.95 109.536 154.82 109.476 154.7C109.422 154.607 109.342 154.52 109.236 154.44C109.129 154.353 108.979 154.31 108.786 154.31V157.06C108.979 157.06 109.129 157.02 109.236 156.94C109.342 156.86 109.422 156.77 109.476 156.67C109.536 156.55 109.569 156.417 109.576 156.27V155.09ZM116.295 160.02H118.265V161H113.935V153.91H116.295V160.02ZM124.543 153.91V154.9H122.583V157.06H123.363V157.85H122.583V160.01H124.543V161H120.213V153.91H124.543Z" fill="white"/>
<rect width="147" height="143" transform="translate(562 29)" fill="black"/>
<rect x="563" y="30" width="145" height="35" rx="2" stroke="white" stroke-width="2"/>
<path d="M616.583 54H622.303L616.503 40H608.783L602.983 54H608.703L609.663 51.48H615.623L616.583 54ZM611.023 47.88L612.643 43.6L614.263 47.88H611.023ZM622.913 46.98C622.913 51.86 625.553 54.2 631.713 54.2C637.333 54.2 640.233 52.22 640.453 47.78H635.133C634.933 49.12 633.913 49.8 631.713 49.8C628.653 49.8 628.113 48.48 628.113 46.98C628.113 45.5 628.633 44.2 631.713 44.2C633.913 44.2 634.933 44.86 635.133 46.18H640.453C640.233 41.76 637.313 39.8 631.713 39.8C625.553 39.8 622.913 42.12 622.913 46.98ZM648.262 40H643.062V54H648.262V40ZM661.458 40H651.058V54H661.458C664.838 54 668.018 51.76 668.018 47C668.018 42.24 664.838 40 661.458 40ZM659.858 49.6H656.258V44.4H659.858C660.978 44.4 662.818 44.4 662.818 47C662.818 49.6 660.978 49.6 659.858 49.6Z" fill="white"/>
<rect x="563" y="83" width="145" height="35" rx="2" stroke="white" stroke-width="2"/>
<path d="M587.971 102.6V93H582.771C582.771 95 580.831 95 578.771 95V99.4C580.231 99.4 581.311 99.4 582.831 98.06L582.791 102.6H578.771V107H591.971V102.6H587.971ZM610.455 97.2C610.455 93.72 607.635 92.8 602.815 92.8C598.055 92.8 594.775 93.72 594.775 98.5H599.975C599.975 97.2 601.175 97.2 603.015 97.2C604.755 97.2 605.255 97.3 605.255 97.9C605.255 99.86 594.575 99.36 594.575 104.6V107H610.255V102.6H602.595C603.595 101.04 610.455 101.74 610.455 97.2ZM621.064 107.2C626.604 107.2 629.264 104.84 629.264 99.98C629.264 95.14 626.604 92.8 621.064 92.8C615.504 92.8 612.864 95.12 612.864 99.98C612.864 104.86 615.504 107.2 621.064 107.2ZM621.064 102.8C618.604 102.8 618.064 101.48 618.064 99.98C618.064 98.5 618.584 97.2 621.064 97.2C623.544 97.2 624.064 98.52 624.064 99.98C624.064 101.46 623.524 102.8 621.064 102.8ZM647.121 99.18C647.801 98.38 648.221 97.46 648.221 96.56C648.221 94.44 647.241 93 644.061 93H631.861V107H644.661C647.841 107 649.221 105.16 649.221 102.86C649.221 101.34 648.341 100.06 647.121 99.18ZM637.061 96.4H641.861C642.381 96.4 643.021 96.4 643.021 97.16C643.021 97.92 642.381 97.92 641.861 97.92H637.061V96.4ZM642.861 103.2H637.061V101.72H642.861C643.381 101.72 644.021 101.72 644.021 102.46C644.021 103.2 643.381 103.2 642.861 103.2ZM662.83 93H651.83V107H657.03V103.72H662.83C666.01 103.72 668.19 101.48 668.19 98.36C668.19 95.24 666.01 93 662.83 93ZM661.83 99.32H657.03V97.4H661.83C662.35 97.4 662.99 97.4 662.99 98.36C662.99 99.32 662.35 99.32 661.83 99.32ZM692.223 93H685.823L681.503 101L677.183 93H670.783V107H675.983V100.34L679.803 107H683.203L687.023 100.34V107H692.223V93Z" fill="white"/>
<rect x="563" y="136" width="145" height="35" rx="2" stroke="white" stroke-width="2"/>
<path d="M610.973 146H605.773V160H610.973V146ZM624.609 146V154.26L618.569 146H611.769V160H616.969V151.74L623.009 160H629.809V146H624.609ZM641.017 146H630.617V160H641.017C644.397 160 647.577 157.76 647.577 153C647.577 148.24 644.397 146 641.017 146ZM639.417 155.6H635.817V150.4H639.417C640.537 150.4 642.377 150.4 642.377 153C642.377 155.6 640.537 155.6 639.417 155.6ZM653.103 155.4V160H658.303V155.4L665.423 146H659.423L655.703 151.2L651.983 146H645.983L653.103 155.4Z" fill="white"/>
<rect width="147" height="37" transform="translate(716 28)" fill="black"/>
<rect x="717" y="29" width="145" height="35" rx="2" stroke="white" stroke-width="2"/>
<path d="M754.661 39V43.8H746.461V39H741.261V53H746.461V48.2H754.661V53H759.861V39H754.661ZM771.061 53.2C777.201 53.2 779.861 50.84 779.861 45.98C779.861 41.14 777.201 38.8 771.061 38.8C764.901 38.8 762.261 41.12 762.261 45.98C762.261 50.86 764.901 53.2 771.061 53.2ZM771.061 48.8C768.001 48.8 767.461 47.48 767.461 45.98C767.461 44.5 767.981 43.2 771.061 43.2C774.141 43.2 774.661 44.52 774.661 45.98C774.661 47.46 774.121 48.8 771.061 48.8ZM800.068 45.98V39H794.868V45.98C794.868 47.46 794.328 48.8 791.268 48.8C788.208 48.8 787.668 47.48 787.668 45.98V39H782.468V45.98C782.468 50.86 785.108 53.2 791.268 53.2C797.408 53.2 800.068 50.84 800.068 45.98ZM802.667 48.06C802.667 52.22 805.867 53.2 811.607 53.2C817.347 53.2 820.547 52.22 820.547 48.36C820.547 44.7 817.127 44.32 811.607 44.1C808.567 43.98 808.067 44 808.067 43.46C808.067 42.92 808.567 42.8 811.007 42.8C813.547 42.8 814.747 42.96 814.747 43.7H819.947C819.947 40.12 816.867 38.8 811.407 38.8C805.887 38.8 802.867 40.12 802.867 43.2C802.867 46.46 805.287 47.5 811.607 47.7C814.887 47.8 815.347 47.88 815.347 48.48C815.347 49 814.887 49.2 811.807 49.2C808.507 49.2 807.867 48.74 807.867 48.06H802.667ZM837.948 43V39H823.148V53H837.948V49H828.348V47.7H837.948V44.3H828.348V43H837.948Z" fill="white"/>
<rect width="147" height="37" transform="translate(716 81)" fill="black"/>
<rect x="717" y="82" width="145" height="35" rx="2" stroke="white" stroke-width="2"/>
<path d="M754.818 98.18C755.498 97.38 755.918 96.46 755.918 95.56C755.918 93.44 754.938 92 751.758 92H739.558V106H752.358C755.538 106 756.918 104.16 756.918 101.86C756.918 100.34 756.038 99.06 754.818 98.18ZM744.758 95.4H749.558C750.078 95.4 750.718 95.4 750.718 96.16C750.718 96.92 750.078 96.92 749.558 96.92H744.758V95.4ZM750.558 102.2H744.758V100.72H750.558C751.078 100.72 751.718 100.72 751.718 101.46C751.718 102.2 751.078 102.2 750.558 102.2ZM771.736 106H777.456L771.656 92H763.936L758.136 106H763.856L764.816 103.48H770.776L771.736 106ZM766.176 99.88L767.796 95.6L769.416 99.88H766.176ZM785.067 92H779.867V106H785.067V92ZM788.263 97.2V101.2H804.263V97.2H788.263ZM822.261 96V92H807.461V106H822.261V102H812.661V100.7H822.261V97.3H812.661V96H822.261ZM839.651 96V92H824.851V106H839.651V102H830.051V100.7H839.651V97.3H830.051V96H839.651Z" fill="white"/>
<rect width="147" height="37" transform="translate(716 134)" fill="black"/>
<rect x="717" y="135" width="145" height="35" rx="2" stroke="white" stroke-width="2"/>
<path d="M748.298 145H737.898V159H748.298C751.678 159 754.858 156.76 754.858 152C754.858 147.24 751.678 145 748.298 145ZM746.698 154.6H743.098V149.4H746.698C747.818 149.4 749.658 149.4 749.658 152C749.658 154.6 747.818 154.6 746.698 154.6ZM762.657 145H757.457V159H762.657V145ZM765.253 154.06C765.253 158.22 768.453 159.2 774.193 159.2C779.933 159.2 783.133 158.22 783.133 154.36C783.133 150.7 779.713 150.32 774.193 150.1C771.153 149.98 770.653 150 770.653 149.46C770.653 148.92 771.153 148.8 773.593 148.8C776.133 148.8 777.333 148.96 777.333 149.7H782.533C782.533 146.12 779.453 144.8 773.993 144.8C768.473 144.8 765.453 146.12 765.453 149.2C765.453 152.46 767.873 153.5 774.193 153.7C777.473 153.8 777.933 153.88 777.933 154.48C777.933 155 777.473 155.2 774.393 155.2C771.093 155.2 770.453 154.74 770.453 154.06H765.253ZM802.343 145H785.143V149.4H791.143V159H796.343V149.4H802.343V145ZM821.301 150.36C821.301 147.24 819.121 145 815.941 145H804.941V159H810.141V155.72H813.201L815.141 159H821.301L818.821 154.98C820.361 154.08 821.301 152.4 821.301 150.36ZM810.141 149.4H814.941C815.461 149.4 816.101 149.4 816.101 150.36C816.101 151.32 815.461 151.32 814.941 151.32H810.141V149.4ZM832.494 159.2C838.634 159.2 841.294 156.84 841.294 151.98C841.294 147.14 838.634 144.8 832.494 144.8C826.334 144.8 823.694 147.12 823.694 151.98C823.694 156.86 826.334 159.2 832.494 159.2ZM832.494 154.8C829.434 154.8 828.894 153.48 828.894 151.98C828.894 150.5 829.414 149.2 832.494 149.2C835.574 149.2 836.094 150.52 836.094 151.98C836.094 153.46 835.554 154.8 832.494 154.8Z" fill="white"/>
<path d="M223.725 54.675C226.275 51.675 227.85 48.225 227.85 44.85C227.85 36.9 224.175 31.5 212.25 31.5H166.5V84H214.5C226.425 84 231.6 77.1 231.6 68.475C231.6 62.775 228.3 57.975 223.725 54.675ZM186 44.25H204C205.95 44.25 208.35 44.25 208.35 47.1C208.35 49.95 205.95 49.95 204 49.95H186V44.25ZM207.75 69.75H186V64.2H207.75C209.7 64.2 212.1 64.2 212.1 66.975C212.1 69.75 209.7 69.75 207.75 69.75ZM278.915 84H300.365L278.615 31.5H249.665L227.915 84H249.365L252.965 74.55H275.315L278.915 84ZM258.065 61.05L264.14 45L270.215 61.05H258.065ZM320.657 31.5H301.157V84H320.657V31.5ZM324.393 51V66H384.393V51H324.393ZM443.634 46.5V31.5H388.134V84H443.634V69H407.634V64.125H443.634V51.375H407.634V46.5H443.634ZM500.599 46.5V31.5H445.099V84H500.599V69H464.599V64.125H500.599V51.375H464.599V46.5H500.599Z" fill="url(#paint1_linear_355_102)"/>
<path d="M223.725 54.675L223.344 54.3512L222.993 54.7637L223.433 55.0805L223.725 54.675ZM166.5 31.5V31H166V31.5H166.5ZM166.5 84H166V84.5H166.5V84ZM186 44.25V43.75H185.5V44.25H186ZM186 49.95H185.5V50.45H186V49.95ZM186 69.75H185.5V70.25H186V69.75ZM186 64.2V63.7H185.5V64.2H186ZM224.106 54.9988C226.707 51.9394 228.35 48.3788 228.35 44.85H227.35C227.35 48.0712 225.843 51.4106 223.344 54.3512L224.106 54.9988ZM228.35 44.85C228.35 40.8065 227.416 37.3112 224.871 34.8353C222.329 32.3633 218.277 31 212.25 31V32C218.148 32 221.896 33.3367 224.173 35.5521C226.447 37.7638 227.35 40.9435 227.35 44.85H228.35ZM212.25 31H166.5V32H212.25V31ZM166 31.5V84H167V31.5H166ZM166.5 84.5H214.5V83.5H166.5V84.5ZM214.5 84.5C220.559 84.5 224.976 82.7448 227.877 79.8242C230.775 76.9059 232.1 72.8857 232.1 68.475H231.1C231.1 72.6893 229.837 76.4316 227.167 79.1195C224.499 81.8052 220.366 83.5 214.5 83.5V84.5ZM232.1 68.475C232.1 62.5668 228.679 57.6317 224.018 54.2695L223.433 55.0805C227.921 58.3183 231.1 62.9832 231.1 68.475H232.1ZM186 44.75H204V43.75H186V44.75ZM204 44.75C205.004 44.75 205.98 44.7578 206.712 45.0669C207.06 45.2139 207.332 45.4223 207.523 45.7211C207.715 46.0226 207.85 46.4574 207.85 47.1H208.85C208.85 46.3176 208.685 45.6837 208.366 45.1836C208.046 44.6808 207.596 44.3549 207.101 44.1456C206.145 43.7421 204.946 43.75 204 43.75V44.75ZM207.85 47.1C207.85 47.7426 207.715 48.1774 207.523 48.4789C207.332 48.7777 207.06 48.9861 206.712 49.1331C205.98 49.4421 205.004 49.45 204 49.45V50.45C204.946 50.45 206.145 50.4578 207.101 50.0544C207.596 49.8451 208.046 49.5192 208.366 49.0164C208.685 48.5163 208.85 47.8824 208.85 47.1H207.85ZM204 49.45H186V50.45H204V49.45ZM186.5 49.95V44.25H185.5V49.95H186.5ZM207.75 69.25H186V70.25H207.75V69.25ZM186.5 69.75V64.2H185.5V69.75H186.5ZM186 64.7H207.75V63.7H186V64.7ZM207.75 64.7C208.753 64.7 209.732 64.7075 210.466 65.0093C210.816 65.1532 211.087 65.3562 211.276 65.6446C211.466 65.9347 211.6 66.3535 211.6 66.975H212.6C212.6 66.209 212.434 65.5872 212.113 65.0968C211.791 64.6047 211.34 64.2875 210.846 64.0844C209.893 63.6925 208.697 63.7 207.75 63.7V64.7ZM211.6 66.975C211.6 67.5965 211.466 68.0153 211.276 68.3054C211.087 68.5938 210.816 68.7968 210.466 68.9407C209.732 69.2425 208.753 69.25 207.75 69.25V70.25C208.697 70.25 209.893 70.2575 210.846 69.8656C211.34 69.6625 211.791 69.3453 212.113 68.8532C212.434 68.3628 212.6 67.741 212.6 66.975H211.6ZM278.915 84L278.448 84.178L278.57 84.5H278.915V84ZM300.365 84V84.5H301.113L300.827 83.8086L300.365 84ZM278.615 31.5L279.077 31.3086L278.949 31H278.615V31.5ZM249.665 31.5V31H249.331L249.203 31.3086L249.665 31.5ZM227.915 84L227.453 83.8086L227.167 84.5H227.915V84ZM249.365 84V84.5H249.71L249.832 84.178L249.365 84ZM252.965 74.55V74.05H252.62L252.498 74.372L252.965 74.55ZM275.315 74.55L275.782 74.372L275.66 74.05H275.315V74.55ZM258.065 61.05L257.597 60.873L257.341 61.55H258.065V61.05ZM264.14 45L264.608 44.823L264.14 43.5875L263.672 44.823L264.14 45ZM270.215 61.05V61.55H270.939L270.683 60.873L270.215 61.05ZM278.915 84.5H300.365V83.5H278.915V84.5ZM300.827 83.8086L279.077 31.3086L278.153 31.6914L299.903 84.1914L300.827 83.8086ZM278.615 31H249.665V32H278.615V31ZM249.203 31.3086L227.453 83.8086L228.377 84.1914L250.127 31.6914L249.203 31.3086ZM227.915 84.5H249.365V83.5H227.915V84.5ZM249.832 84.178L253.432 74.728L252.498 74.372L248.898 83.822L249.832 84.178ZM252.965 75.05H275.315V74.05H252.965V75.05ZM274.848 74.728L278.448 84.178L279.382 83.822L275.782 74.372L274.848 74.728ZM258.533 61.227L264.608 45.177L263.672 44.823L257.597 60.873L258.533 61.227ZM263.672 45.177L269.747 61.227L270.683 60.873L264.608 44.823L263.672 45.177ZM270.215 60.55H258.065V61.55H270.215V60.55ZM320.657 31.5H321.157V31H320.657V31.5ZM301.157 31.5V31H300.657V31.5H301.157ZM301.157 84H300.657V84.5H301.157V84ZM320.657 84V84.5H321.157V84H320.657ZM320.657 31H301.157V32H320.657V31ZM300.657 31.5V84H301.657V31.5H300.657ZM301.157 84.5H320.657V83.5H301.157V84.5ZM321.157 84V31.5H320.157V84H321.157ZM324.393 51V50.5H323.893V51H324.393ZM324.393 66H323.893V66.5H324.393V66ZM384.393 66V66.5H384.893V66H384.393ZM384.393 51H384.893V50.5H384.393V51ZM323.893 51V66H324.893V51H323.893ZM324.393 66.5H384.393V65.5H324.393V66.5ZM384.893 66V51H383.893V66H384.893ZM384.393 50.5H324.393V51.5H384.393V50.5ZM443.634 46.5V47H444.134V46.5H443.634ZM443.634 31.5H444.134V31H443.634V31.5ZM388.134 31.5V31H387.634V31.5H388.134ZM388.134 84H387.634V84.5H388.134V84ZM443.634 84V84.5H444.134V84H443.634ZM443.634 69H444.134V68.5H443.634V69ZM407.634 69H407.134V69.5H407.634V69ZM407.634 64.125V63.625H407.134V64.125H407.634ZM443.634 64.125V64.625H444.134V64.125H443.634ZM443.634 51.375H444.134V50.875H443.634V51.375ZM407.634 51.375H407.134V51.875H407.634V51.375ZM407.634 46.5V46H407.134V46.5H407.634ZM444.134 46.5V31.5H443.134V46.5H444.134ZM443.634 31H388.134V32H443.634V31ZM387.634 31.5V84H388.634V31.5H387.634ZM388.134 84.5H443.634V83.5H388.134V84.5ZM444.134 84V69H443.134V84H444.134ZM443.634 68.5H407.634V69.5H443.634V68.5ZM408.134 69V64.125H407.134V69H408.134ZM407.634 64.625H443.634V63.625H407.634V64.625ZM444.134 64.125V51.375H443.134V64.125H444.134ZM443.634 50.875H407.634V51.875H443.634V50.875ZM408.134 51.375V46.5H407.134V51.375H408.134ZM407.634 47H443.634V46H407.634V47ZM500.599 46.5V47H501.099V46.5H500.599ZM500.599 31.5H501.099V31H500.599V31.5ZM445.099 31.5V31H444.599V31.5H445.099ZM445.099 84H444.599V84.5H445.099V84ZM500.599 84V84.5H501.099V84H500.599ZM500.599 69H501.099V68.5H500.599V69ZM464.599 69H464.099V69.5H464.599V69ZM464.599 64.125V63.625H464.099V64.125H464.599ZM500.599 64.125V64.625H501.099V64.125H500.599ZM500.599 51.375H501.099V50.875H500.599V51.375ZM464.599 51.375H464.099V51.875H464.599V51.375ZM464.599 46.5V46H464.099V46.5H464.599ZM501.099 46.5V31.5H500.099V46.5H501.099ZM500.599 31H445.099V32H500.599V31ZM444.599 31.5V84H445.599V31.5H444.599ZM445.099 84.5H500.599V83.5H445.099V84.5ZM501.099 84V69H500.099V84H501.099ZM500.599 68.5H464.599V69.5H500.599V68.5ZM465.099 69V64.125H464.099V69H465.099ZM464.599 64.625H500.599V63.625H464.599V64.625ZM501.099 64.125V51.375H500.099V64.125H501.099ZM500.599 50.875H464.599V51.875H500.599V50.875ZM465.099 51.375V46.5H464.099V51.375H465.099ZM464.599 47H500.599V46H464.599V47Z" fill="url(#paint2_linear_355_102)"/>
<path d="M120.575 56.3398C120.504 51.9005 120.075 48.4636 119.504 48.4636C118.933 48.4636 118.505 51.5425 118.434 55.6954C118.291 55.5522 118.077 55.4806 117.863 55.4806C117.577 55.4806 117.292 55.6954 117.078 55.9818C117.006 50.4685 116.649 46.1724 116.15 46.1724C115.65 46.1724 115.293 50.2537 115.222 55.6238C115.008 54.9794 114.58 54.4782 114.151 54.4782C113.652 54.4782 113.224 54.9794 113.009 55.767C112.867 54.9794 112.51 54.4782 112.153 54.4782C111.796 54.4782 111.439 54.9794 111.296 55.767C111.154 54.8362 110.725 54.1918 110.297 54.1918C109.94 54.1918 109.584 54.693 109.369 55.409C109.298 43.3799 108.941 34 108.513 34C108.085 34 107.656 43.8811 107.656 56.4115C107.585 55.1226 107.228 54.2634 106.8 54.2634C106.657 54.2634 106.515 54.4066 106.372 54.693C106.229 51.1129 105.801 48.5352 105.301 48.5352C104.73 48.5352 104.302 51.6141 104.231 55.767C104.088 55.6238 103.874 55.5522 103.66 55.5522C103.374 55.5522 103.089 55.767 102.875 56.0534C102.803 50.5401 102.446 46.244 101.947 46.244C101.447 46.244 101.09 50.3253 101.019 55.6954C100.805 55.051 100.376 54.5498 99.9482 54.5498C99.4486 54.5498 99.0204 55.051 98.8063 55.8386C98.6635 55.051 98.3067 54.5498 97.9498 54.5498C97.5929 54.5498 97.2361 55.051 97.0933 55.8386C96.9506 54.9078 96.5224 54.1918 96.0941 54.1918C95.7373 54.1918 95.3804 54.693 95.1663 55.409C95.0949 43.3799 94.738 34 94.3098 34C93.8816 34 93.4533 43.8811 93.4533 56.4115C93.382 55.1226 93.0251 54.2634 92.5969 54.2634C92.24 54.2634 91.9545 54.9794 91.8118 55.9818C91.7404 51.7573 91.098 48.5352 90.3129 48.5352C89.5992 48.5352 88.9569 51.6141 88.8141 55.767C88.6 55.6238 88.3145 55.5522 88.1004 55.5522C87.6722 55.5522 87.3153 55.767 87.0298 56.0534C86.9584 50.5401 86.3875 46.244 85.7451 46.244C85.1027 46.244 84.5318 50.3253 84.4604 55.6954C84.1749 54.9794 83.6039 54.5498 82.9616 54.5498C82.3192 54.5498 81.7482 55.051 81.4627 55.8386C81.2486 55.1226 80.8204 54.6214 80.2494 54.6214C79.7498 54.6214 79.3216 55.1226 79.0361 55.9102C78.822 54.9794 78.3224 54.335 77.68 54.335C77.1804 54.335 76.7522 54.8362 76.4667 55.5522C76.3953 43.5231 75.8957 34.1432 75.3247 34.1432C74.6824 34.1432 74.1827 44.0243 74.1827 56.5547H74.1114C73.9686 55.2658 73.5404 54.4066 72.9694 54.4066C72.6839 54.4066 72.4698 54.693 72.2557 55.051C72.1843 51.3277 71.8275 48.6068 71.3992 48.6068C70.971 48.6068 70.6141 51.6857 70.5427 55.8386C70.4 55.6954 70.2573 55.6238 70.1145 55.6238C69.9004 55.6238 69.6149 55.8386 69.4722 56.125C69.4722 50.6117 69.1153 46.244 68.7584 46.244C68.4016 46.244 68.0447 50.3253 68.0447 55.6954C67.8306 54.9794 67.5451 54.5498 67.1882 54.5498C66.8314 54.5498 66.4745 55.051 66.2604 55.8386C66.1176 55.1226 65.9035 54.5498 65.618 54.5498C65.3326 54.5498 65.0471 55.051 64.9043 55.8386C64.7616 54.9078 64.4761 54.2634 64.1192 54.2634C63.8337 54.2634 63.5482 54.7646 63.4055 55.4806C63.4055 43.4515 63.12 34.0716 62.7631 34.0716C62.4063 34.0716 62.1208 43.9527 62.1208 56.4831C62.0494 55.1942 61.7639 54.335 61.4784 54.335C61.1929 54.335 60.9074 55.2658 60.8361 56.4831H59.6941C59.6227 54.9078 59.4086 53.6906 59.0518 53.6906C58.6949 53.6906 58.4808 54.9078 58.4094 56.4831H58.338C58.2667 55.409 57.9812 54.6214 57.6957 54.6214C57.6243 54.6214 57.5529 54.693 57.4816 54.8362C57.4102 50.8265 57.1961 47.9624 56.9106 47.9624C56.6251 47.9624 56.3396 51.6857 56.3396 56.5547H56.1255C56.0541 55.2658 55.9114 54.4066 55.6973 54.4066C55.4831 54.4066 55.3404 55.3374 55.269 56.5547H54.4125C54.3412 56.3399 54.2698 56.2682 54.1271 56.2682C54.0557 56.2682 53.9129 56.4115 53.8416 56.5547H52.6996C52.6996 52.0437 52.4141 48.5352 52.1286 48.5352C51.8431 48.5352 51.5576 52.0437 51.5576 56.5547H51.058C50.9867 55.767 50.8439 55.1226 50.7012 55.1226C50.5584 55.1226 50.4157 55.6954 50.3443 56.5547H50.2729C50.2016 56.0534 50.0588 55.6954 49.8447 55.6954C49.702 55.6954 49.4878 56.0534 49.4165 56.5547H49.0596C48.9882 55.6954 48.7027 55.051 48.4173 55.051C48.1318 55.051 47.8463 55.6954 47.7749 56.5547C47.7749 52.5449 47.4894 49.3944 47.1325 49.3944C46.7757 49.3944 46.4902 52.1869 46.4902 55.9102C46.1333 55.9102 45.8478 56.1966 45.6337 56.5547H45.3482C45.2055 55.4806 44.8486 54.7646 44.349 54.7646C43.8494 54.7646 43.4925 55.5522 43.3498 56.5547H43.2071C43.0643 55.9102 42.7075 55.5522 42.2792 55.5522C41.851 55.5522 41.5655 55.9818 41.3514 56.5547H39.6384C39.4243 56.0534 39.1388 55.767 38.7106 55.767C38.5678 55.767 38.4251 55.767 38.3537 55.8386C38.211 55.6238 37.9969 55.4806 37.7827 55.4806C37.4259 55.4806 37.1404 55.9102 36.9976 56.5547H34V58.0583H36.9976C37.1404 58.7027 37.4259 59.1323 37.7827 59.1323C37.9969 59.1323 38.1396 59.0607 38.2824 58.8459C38.4251 58.9175 38.5678 58.9891 38.7106 58.9891C39.1388 58.9891 39.4957 58.6311 39.7098 58.0583H41.5655C41.7796 58.4879 42.0651 58.7743 42.3506 58.7743C42.6361 58.7743 42.9216 58.4879 43.1357 58.0583H43.4212C43.5639 58.9891 43.9208 59.6335 44.349 59.6335C44.7773 59.6335 45.1341 58.9891 45.2769 58.0583H45.5624C45.7765 58.4163 46.062 58.7027 46.4188 58.7027C46.4902 62.2112 46.7757 64.8605 47.0612 64.8605C47.418 64.8605 47.7035 61.8532 47.7035 58.0583H47.8463C47.989 58.5595 48.2031 58.9175 48.4173 58.9175C48.6314 58.9175 48.8455 58.5595 48.9882 58.0583H49.4878C49.5592 58.3447 49.702 58.5595 49.8447 58.5595C49.9875 58.5595 50.0588 58.3447 50.2016 58.0583H50.4157C50.4871 58.5595 50.6298 58.9175 50.7012 58.9175C50.7725 58.9175 50.9153 58.5595 50.9867 58.0583H51.4863C51.4863 62.6408 51.7718 66.2209 52.0573 66.2209C52.3427 66.2209 52.6282 62.6408 52.6282 58.0583H53.6275C53.6988 58.5595 53.8416 58.9175 54.0557 58.9175C54.2698 58.9175 54.4125 58.5595 54.4839 58.0583H55.1976C55.269 59.2039 55.4118 60.0632 55.6259 60.0632C55.84 60.0632 55.9827 59.2039 56.0541 58.0583H56.3396C56.3396 62.8556 56.6251 66.6505 56.9106 66.6505C57.1961 66.6505 57.4102 63.6433 57.4816 59.4903C57.5529 59.6335 57.6243 59.7051 57.6957 59.7051C57.9812 59.7051 58.1953 58.9891 58.338 58.0583H58.4094C58.4808 59.4903 58.6949 60.5644 58.9804 60.5644C59.2659 60.5644 59.48 59.4903 59.5514 58.0583H60.7647C60.8361 59.2039 61.1216 60.0632 61.4071 60.0632C61.6926 60.0632 61.978 59.2039 62.0494 58.0583H62.1208C62.1208 71.3763 62.4063 82.1882 62.7631 82.1882C63.12 82.1882 63.4055 71.5911 63.4055 58.4879C63.5482 59.2039 63.8337 59.7051 64.1192 59.7051C64.4761 59.7051 64.7616 59.0607 64.9043 58.0583C64.9043 58.0583 64.9043 58.0583 64.9043 57.9867V58.0583C65.0471 58.8459 65.2612 59.3471 65.5467 59.3471C65.8322 59.3471 66.1176 58.8459 66.2604 58.0583C66.4031 58.8459 66.76 59.3471 67.1169 59.3471C67.4737 59.3471 67.7592 58.9175 67.9733 58.2015C67.9733 58.1299 67.9733 58.1299 67.9733 58.0583C67.9733 58.1299 67.9733 58.1299 67.9733 58.2015C68.0447 63.7149 68.3302 67.9394 68.6871 67.9394C69.0439 67.9394 69.4008 63.5717 69.4008 57.9867C69.4008 57.9151 69.4008 57.9151 69.4008 57.8435C69.4008 57.9151 69.4722 57.9151 69.4722 57.9867C69.6149 58.2731 69.829 58.4163 70.0431 58.4163C70.1859 58.4163 70.3286 58.3447 70.4714 58.2015C70.5427 62.4976 70.8996 65.7913 71.3278 65.7913C71.7561 65.7913 72.0416 63.0704 72.1843 59.3471C72.3984 59.7768 72.6125 59.9916 72.898 59.9916C73.3976 59.9916 73.8259 59.1323 73.9686 57.9867H74.04C74.04 71.3047 74.5396 82.1166 75.182 82.1166C75.8243 82.1166 76.3239 71.5911 76.3239 58.4163C76.6094 59.1323 77.0376 59.6335 77.5373 59.6335C78.1082 59.6335 78.6078 58.9891 78.8933 57.9867C78.8933 57.9867 78.8933 57.9867 78.8933 57.9151C78.8933 57.9151 78.8933 57.9151 78.8933 57.9867C79.1075 58.7743 79.5357 59.2755 80.1067 59.2755C80.6063 59.2755 81.0345 58.7743 81.32 57.9867C81.6055 58.7027 82.1765 59.2755 82.8188 59.2755C83.4612 59.2755 83.9608 58.8459 84.3176 58.1299C84.389 63.6433 84.96 67.8678 85.6024 67.8678C86.2447 67.8678 86.8157 63.5001 86.8871 57.9151H86.9584C87.2439 58.2015 87.5294 58.3447 87.8863 58.3447C88.1718 58.3447 88.3859 58.2731 88.6 58.1299C88.6714 62.426 89.3137 65.7197 90.0988 65.7197C90.8839 65.7197 91.4549 62.4976 91.5976 58.2731C91.7404 59.2755 92.0259 59.9916 92.3827 59.9916C92.7396 59.9916 93.0965 59.1323 93.1678 57.9867H93.2392C93.2392 71.3047 93.5961 82.1166 94.0957 82.1166C94.5953 82.1166 94.9522 71.5911 94.9522 58.4879C95.1663 59.2039 95.4518 59.7051 95.8086 59.7051C96.2369 59.7051 96.5937 58.9891 96.8078 58.0583C96.9506 58.8459 97.3074 59.3471 97.6643 59.3471C98.0212 59.3471 98.378 58.8459 98.5208 58.0583C98.7349 58.8459 99.1631 59.3471 99.6628 59.3471C100.162 59.3471 100.519 58.9175 100.733 58.2015C100.733 58.1299 100.733 58.1299 100.733 58.0583H100.805C100.805 58.1299 100.805 58.1299 100.733 58.2015C100.805 63.7149 101.162 67.9394 101.661 67.9394C102.161 67.9394 102.589 63.5717 102.589 57.9867V57.9151L102.66 57.9867C102.875 58.2731 103.089 58.4163 103.374 58.4163C103.588 58.4163 103.731 58.3447 103.945 58.2015C104.016 62.4976 104.445 65.7913 105.016 65.7913C105.515 65.7913 105.944 63.2136 106.086 59.6335C106.229 59.92 106.372 60.0632 106.515 60.0632C106.871 60.0632 107.228 59.2039 107.3 58.0583H110.94C110.94 58.0583 110.94 58.0583 110.94 58.1299C111.154 58.9175 111.439 59.4187 111.796 59.4187C112.153 59.4187 112.51 58.9175 112.653 58.1299C112.867 58.9175 113.295 59.4187 113.795 59.4187C114.294 59.4187 114.651 58.9891 114.865 58.2731C114.865 58.2015 114.865 58.2015 114.865 58.1299H114.936C114.936 58.2015 114.936 58.2015 114.865 58.2731C114.936 63.7865 115.293 68.011 115.793 68.011C116.293 68.011 116.721 63.6433 116.721 58.0583V57.9867L116.792 58.0583C117.006 58.3447 117.22 58.4879 117.506 58.4879C117.72 58.4879 117.863 58.4163 118.077 58.2731V58.0583H118.22C118.148 58.1299 118.148 58.2015 118.077 58.2731C118.148 62.5692 118.576 65.8629 119.147 65.8629C119.718 65.8629 120.218 62.426 120.218 58.1299H125V56.4115H120.575V56.3398ZM117.078 56.3398H116.864C116.935 56.1966 116.935 56.0534 117.078 55.9102C117.078 56.0534 117.078 56.1966 117.078 56.3398Z" fill="white"/>
<path d="M186.312 101.968C187.24 101.968 188.056 102.08 188.76 102.304C189.496 102.528 190.12 102.816 190.632 103.168C191.176 103.52 191.624 103.92 191.976 104.368C192.328 104.816 192.632 105.28 192.888 105.76C193.464 106.88 193.784 108.144 193.848 109.552V136H182.52V120.88H178.728V136H167.4V109.552C167.4 107.664 167.784 106.208 168.552 105.184C169.352 104.16 170.232 103.408 171.192 102.928C172.28 102.352 173.544 102.032 174.984 101.968H186.312ZM182.52 105.76C182.488 105.44 182.408 105.136 182.28 104.848C182.152 104.592 181.96 104.368 181.704 104.176C181.448 103.984 181.096 103.888 180.648 103.888C180.168 103.888 179.8 103.984 179.544 104.176C179.288 104.368 179.096 104.592 178.968 104.848C178.84 105.136 178.76 105.44 178.728 105.76V117.088H182.52V105.76ZM198.666 109.552C198.666 108.592 198.762 107.76 198.954 107.056C199.178 106.32 199.466 105.696 199.818 105.184C200.17 104.64 200.57 104.192 201.018 103.84C201.466 103.488 201.93 103.184 202.41 102.928C203.498 102.352 204.762 102.032 206.202 101.968H216.618C217.674 101.968 218.602 102.096 219.402 102.352C220.202 102.576 220.906 102.896 221.514 103.312C222.122 103.728 222.634 104.192 223.05 104.704C223.466 105.216 223.802 105.728 224.058 106.24C224.666 107.488 225.018 108.896 225.114 110.464H213.786V105.76C213.754 105.44 213.674 105.136 213.546 104.848C213.418 104.592 213.226 104.368 212.97 104.176C212.714 103.984 212.346 103.888 211.866 103.888C211.386 103.888 211.018 103.984 210.762 104.176C210.538 104.368 210.362 104.592 210.234 104.848C210.106 105.136 210.026 105.44 209.994 105.76V132.208C210.026 132.56 210.106 132.88 210.234 133.168C210.362 133.424 210.538 133.648 210.762 133.84C211.018 134 211.386 134.08 211.866 134.08C212.346 134.08 212.714 134 212.97 133.84C213.226 133.648 213.418 133.424 213.546 133.168C213.674 132.88 213.754 132.56 213.786 132.208V127.504H225.114C225.018 129.104 224.666 130.528 224.058 131.776C223.802 132.32 223.466 132.848 223.05 133.36C222.634 133.84 222.122 134.288 221.514 134.704C220.906 135.088 220.202 135.408 219.402 135.664C218.602 135.888 217.674 136 216.618 136H206.202C204.762 135.936 203.498 135.616 202.41 135.04C201.93 134.816 201.466 134.528 201.018 134.176C200.57 133.792 200.17 133.344 199.818 132.832C199.466 132.288 199.178 131.664 198.954 130.96C198.762 130.224 198.666 129.376 198.666 128.416V109.552ZM240.089 101.968V136H228.713V101.968H240.089ZM263.796 101.968C264.724 101.968 265.54 102.08 266.244 102.304C266.98 102.528 267.604 102.816 268.116 103.168C268.66 103.52 269.108 103.92 269.46 104.368C269.812 104.816 270.116 105.28 270.372 105.76C270.948 106.88 271.268 108.144 271.332 109.552V128.416C271.268 129.856 270.948 131.12 270.372 132.208C269.892 133.168 269.14 134.048 268.116 134.848C267.092 135.616 265.652 136 263.796 136H244.884V101.968H263.796ZM260.004 107.632C259.972 106.96 259.812 106.336 259.524 105.76C259.268 105.312 258.884 104.896 258.372 104.512C257.86 104.096 257.14 103.888 256.212 103.888V134.08C257.14 134.08 257.86 133.888 258.372 133.504C258.884 133.12 259.268 132.688 259.524 132.208C259.812 131.664 259.972 131.04 260.004 130.336V107.632ZM317.901 113.296C317.901 114.736 317.693 115.84 317.277 116.608C316.893 117.344 316.477 117.888 316.029 118.24C315.453 118.656 314.829 118.896 314.157 118.96C314.829 119.024 315.453 119.264 316.029 119.68C316.477 120.032 316.893 120.592 317.277 121.36C317.693 122.128 317.901 123.232 317.901 124.672V128.416C317.837 129.856 317.517 131.12 316.941 132.208C316.461 133.168 315.709 134.048 314.685 134.848C313.661 135.616 312.221 136 310.365 136H290.541V101.968H310.365C311.293 101.968 312.109 102.08 312.813 102.304C313.549 102.528 314.173 102.816 314.685 103.168C315.229 103.52 315.677 103.92 316.029 104.368C316.381 104.816 316.685 105.28 316.941 105.76C317.517 106.88 317.837 108.144 317.901 109.552V113.296ZM307.533 124.672C307.501 124 307.341 123.376 307.053 122.8C306.797 122.32 306.413 121.888 305.901 121.504C305.389 121.088 304.669 120.88 303.741 120.88V134.08C304.669 134.08 305.389 133.888 305.901 133.504C306.413 133.12 306.797 132.688 307.053 132.208C307.341 131.664 307.501 131.04 307.533 130.336V124.672ZM307.533 107.632C307.501 106.96 307.341 106.336 307.053 105.76C306.797 105.312 306.413 104.896 305.901 104.512C305.389 104.096 304.669 103.888 303.741 103.888V117.088C304.669 117.088 305.389 116.896 305.901 116.512C306.413 116.128 306.797 115.696 307.053 115.216C307.341 114.64 307.501 114 307.533 113.296V107.632ZM343.481 101.968V106.72H334.073V117.088H337.817V120.88H334.073V131.248H343.481V136H322.697V101.968H343.481ZM365.984 101.968C366.912 101.968 367.728 102.08 368.432 102.304C369.168 102.528 369.792 102.816 370.304 103.168C370.848 103.52 371.296 103.92 371.648 104.368C372 104.816 372.304 105.28 372.56 105.76C373.136 106.88 373.456 108.144 373.52 109.552V136H362.192V120.88H358.4V136H347.072V109.552C347.072 107.664 347.456 106.208 348.224 105.184C349.024 104.16 349.904 103.408 350.864 102.928C351.952 102.352 353.216 102.032 354.656 101.968H365.984ZM362.192 105.76C362.16 105.44 362.08 105.136 361.952 104.848C361.824 104.592 361.632 104.368 361.376 104.176C361.12 103.984 360.768 103.888 360.32 103.888C359.84 103.888 359.472 103.984 359.216 104.176C358.96 104.368 358.768 104.592 358.64 104.848C358.512 105.136 358.432 105.44 358.4 105.76V117.088H362.192V105.76ZM378.338 109.552C378.338 108.592 378.434 107.76 378.626 107.056C378.85 106.32 379.138 105.696 379.49 105.184C379.842 104.64 380.242 104.192 380.69 103.84C381.138 103.488 381.602 103.184 382.082 102.928C383.17 102.352 384.434 102.032 385.874 101.968H396.29C397.346 101.968 398.274 102.096 399.074 102.352C399.874 102.576 400.578 102.896 401.186 103.312C401.794 103.728 402.306 104.192 402.722 104.704C403.138 105.216 403.474 105.728 403.73 106.24C404.338 107.488 404.69 108.896 404.786 110.464H393.458V105.76C393.426 105.44 393.346 105.136 393.218 104.848C393.09 104.592 392.898 104.368 392.642 104.176C392.386 103.984 392.018 103.888 391.538 103.888C391.058 103.888 390.69 103.984 390.434 104.176C390.21 104.368 390.034 104.592 389.906 104.848C389.778 105.136 389.698 105.44 389.666 105.76V132.208C389.698 132.56 389.778 132.88 389.906 133.168C390.034 133.424 390.21 133.648 390.434 133.84C390.69 134 391.058 134.08 391.538 134.08C392.018 134.08 392.386 134 392.642 133.84C392.898 133.648 393.09 133.424 393.218 133.168C393.346 132.88 393.426 132.56 393.458 132.208V127.504H404.786C404.69 129.104 404.338 130.528 403.73 131.776C403.474 132.32 403.138 132.848 402.722 133.36C402.306 133.84 401.794 134.288 401.186 134.704C400.578 135.088 399.874 135.408 399.074 135.664C398.274 135.888 397.346 136 396.29 136H385.874C384.434 135.936 383.17 135.616 382.082 135.04C381.602 134.816 381.138 134.528 380.69 134.176C380.242 133.792 379.842 133.344 379.49 132.832C379.138 132.288 378.85 131.664 378.626 130.96C378.434 130.224 378.338 129.376 378.338 128.416V109.552ZM419.808 101.968L419.76 117.136H424.464V101.968H435.792V136H424.464V120.88H419.76V136H408.384V101.968H419.808ZM191.928 163.544C191.96 164.248 192.12 164.888 192.408 165.464C192.664 165.944 193.032 166.376 193.512 166.76C194.024 167.144 194.76 167.336 195.72 167.336V173H190.056C189.096 173 188.248 172.904 187.512 172.712C186.808 172.488 186.184 172.2 185.64 171.848C185.128 171.496 184.68 171.096 184.296 170.648C183.944 170.2 183.656 169.736 183.432 169.256C182.856 168.168 182.536 166.904 182.472 165.464V159.8C182.44 159.448 182.36 159.128 182.232 158.84C182.104 158.584 181.912 158.36 181.656 158.168C181.4 157.976 181.048 157.88 180.6 157.88H178.728V173H167.4V139.016H186.264C187.224 139.016 188.056 139.128 188.76 139.352C189.496 139.576 190.12 139.864 190.632 140.216C191.176 140.568 191.624 140.968 191.976 141.416C192.328 141.864 192.632 142.328 192.888 142.808C193.464 143.896 193.784 145.144 193.848 146.552V148.424C193.784 149.864 193.544 151.128 193.128 152.216C192.776 153.176 192.216 154.056 191.448 154.856C190.68 155.624 189.592 156.008 188.184 156.008C188.856 156.04 189.48 156.2 190.056 156.488C190.504 156.744 190.92 157.128 191.304 157.64C191.72 158.152 191.928 158.872 191.928 159.8V163.544ZM182.472 144.68C182.44 144.008 182.28 143.384 181.992 142.808C181.736 142.328 181.352 141.896 180.84 141.512C180.36 141.096 179.656 140.888 178.728 140.888V154.136C179.656 154.136 180.36 153.944 180.84 153.56C181.352 153.176 181.736 152.744 181.992 152.264C182.28 151.688 182.44 151.048 182.472 150.344V144.68ZM219.453 138.968C220.381 138.968 221.197 139.08 221.901 139.304C222.637 139.528 223.261 139.816 223.773 140.168C224.317 140.52 224.765 140.92 225.117 141.368C225.469 141.816 225.773 142.28 226.029 142.76C226.605 143.88 226.925 145.144 226.989 146.552V173H215.661V157.88H211.869V173H200.541V146.552C200.541 144.664 200.925 143.208 201.693 142.184C202.493 141.16 203.373 140.408 204.333 139.928C205.421 139.352 206.685 139.032 208.125 138.968H219.453ZM215.661 142.76C215.629 142.44 215.549 142.136 215.421 141.848C215.293 141.592 215.101 141.368 214.845 141.176C214.589 140.984 214.237 140.888 213.789 140.888C213.309 140.888 212.941 140.984 212.685 141.176C212.429 141.368 212.237 141.592 212.109 141.848C211.981 142.136 211.901 142.44 211.869 142.76V154.088H215.661V142.76ZM250.718 138.968C251.646 138.968 252.462 139.08 253.166 139.304C253.902 139.528 254.526 139.816 255.038 140.168C255.582 140.52 256.03 140.92 256.382 141.368C256.734 141.816 257.038 142.28 257.294 142.76C257.87 143.88 258.19 145.144 258.254 146.552V165.416C258.19 166.856 257.87 168.12 257.294 169.208C256.814 170.168 256.062 171.048 255.038 171.848C254.014 172.616 252.574 173 250.718 173H231.806V138.968H250.718ZM246.926 144.632C246.894 143.96 246.734 143.336 246.446 142.76C246.19 142.312 245.806 141.896 245.294 141.512C244.782 141.096 244.062 140.888 243.134 140.888V171.08C244.062 171.08 244.782 170.888 245.294 170.504C245.806 170.12 246.19 169.688 246.446 169.208C246.734 168.664 246.894 168.04 246.926 167.336V144.632ZM274.448 138.968V173H263.072V138.968H274.448ZM297.676 138.968C298.604 138.968 299.42 139.08 300.124 139.304C300.86 139.528 301.484 139.816 301.996 140.168C302.54 140.52 302.988 140.92 303.34 141.368C303.692 141.816 303.996 142.28 304.252 142.76C304.828 143.88 305.148 145.144 305.212 146.552V165.464C305.212 166.424 305.1 167.256 304.876 167.96C304.652 168.664 304.364 169.288 304.012 169.832C303.66 170.344 303.26 170.792 302.812 171.176C302.364 171.528 301.9 171.816 301.42 172.04C300.332 172.616 299.084 172.936 297.676 173H286.348C284.908 172.936 283.644 172.616 282.556 172.04C282.076 171.816 281.612 171.528 281.164 171.176C280.716 170.792 280.3 170.344 279.916 169.832C279.564 169.288 279.276 168.664 279.052 167.96C278.86 167.256 278.764 166.424 278.764 165.464V146.552C278.764 144.696 279.148 143.256 279.916 142.232C280.716 141.176 281.596 140.408 282.556 139.928C283.644 139.352 284.908 139.032 286.348 138.968H297.676ZM293.884 142.76C293.852 142.44 293.772 142.136 293.644 141.848C293.516 141.592 293.324 141.368 293.068 141.176C292.812 140.984 292.46 140.888 292.012 140.888C291.532 140.888 291.164 140.984 290.908 141.176C290.652 141.368 290.46 141.592 290.332 141.848C290.204 142.136 290.124 142.44 290.092 142.76V169.208C290.124 169.56 290.204 169.88 290.332 170.168C290.46 170.424 290.652 170.648 290.908 170.84C291.164 171.032 291.532 171.128 292.012 171.128C292.46 171.128 292.812 171.032 293.068 170.84C293.324 170.648 293.516 170.424 293.644 170.168C293.772 169.88 293.852 169.56 293.884 169.208V142.76ZM344.7 138.968V143.72H335.292V154.088H339.036V157.88H335.292V168.248H344.7V173H323.916V138.968H344.7ZM367.203 138.968C368.131 138.968 368.947 139.08 369.651 139.304C370.387 139.528 371.011 139.816 371.523 140.168C372.067 140.52 372.515 140.92 372.867 141.368C373.219 141.816 373.523 142.28 373.779 142.76C374.355 143.88 374.675 145.144 374.739 146.552V165.416C374.675 166.856 374.355 168.12 373.779 169.208C373.299 170.168 372.547 171.048 371.523 171.848C370.499 172.616 369.059 173 367.203 173H348.291V138.968H367.203ZM363.411 144.632C363.379 143.96 363.219 143.336 362.931 142.76C362.675 142.312 362.291 141.896 361.779 141.512C361.267 141.096 360.547 140.888 359.619 140.888V171.08C360.547 171.08 361.267 170.888 361.779 170.504C362.291 170.12 362.675 169.688 362.931 169.208C363.219 168.664 363.379 168.04 363.411 167.336V144.632ZM390.932 138.968V173H379.556V138.968H390.932ZM403.264 143.72H393.808V138.968H424.048V143.72H414.592V173H403.264V143.72Z" fill="white"/>
</g>
<defs>
<filter id="filter0_b_355_102" x="-2" y="-2" width="904" height="200" filterUnits="userSpaceOnUse" color-interpolation-filters="sRGB">
<feFlood flood-opacity="0" result="BackgroundImageFix"/>
<feGaussianBlur in="BackgroundImage" stdDeviation="2"/>
<feComposite in2="SourceAlpha" operator="in" result="effect1_backgroundBlur_355_102"/>
<feBlend mode="normal" in="SourceGraphic" in2="effect1_backgroundBlur_355_102" result="shape"/>
</filter>
<linearGradient id="paint0_linear_355_102" x1="448" y1="271" x2="448" y2="306" gradientUnits="userSpaceOnUse">
<stop offset="0.9999" stop-color="white"/>
<stop offset="1" stop-color="white" stop-opacity="0"/>
</linearGradient>
<linearGradient id="paint1_linear_355_102" x1="366.5" y1="12" x2="366.5" y2="111" gradientUnits="userSpaceOnUse">
<stop offset="0.9999" stop-color="white"/>
<stop offset="1" stop-color="white" stop-opacity="0"/>
</linearGradient>
<linearGradient id="paint2_linear_355_102" x1="366.5" y1="12" x2="366.5" y2="111" gradientUnits="userSpaceOnUse">
<stop stop-color="white" stop-opacity="0"/>
<stop offset="0.646938" stop-color="white"/>
</linearGradient>
<clipPath id="clip0_355_102">
<rect width="898" height="387" fill="white"/>
</clipPath>
<clipPath id="clip1_355_102">
<rect width="8.87129" height="10.0196" fill="white" transform="translate(41.2002 127.302)"/>
</clipPath>
<clipPath id="clip2_355_102">
<rect width="8.87129" height="10.0196" fill="white" transform="translate(41.2002 139.827)"/>
</clipPath>
<clipPath id="clip3_355_102">
<rect width="8.87129" height="10.0196" fill="white" transform="translate(41.2002 152.349)"/>
</clipPath>
</defs>
</svg>
